<?xml version="1.0" encoding="utf-8"?>
<!-- Generator: Adobe Illustrator 23.0.1, SVG Export Plug-In . SVG Version: 6.00 Build 0)  -->
<svg width="133px" height="30px" version="1.1" id="Layer_1" xmlns="http://www.w3.org/2000/svg" xmlns:xlink="http://www.w3.org/1999/xlink" x="0px" y="0px"
	 viewBox="0 0 133 30" style="enable-background:new 0 0 133 30;" xml:space="preserve">
<style type="text/css">
	.st0{fill-rule:evenodd;clip-rule:evenodd;fill:#405263;}
</style>
<title>squish</title>
<g>
	<path class="st0" d="M24.9,14.9c2.1-2.8,2.7-5.5,1.5-7.5c-1.2-1.9-3.6-2.8-7-2.4h-0.3C17.9,1.9,16,0,13.6,0S9.3,1.9,7.9,5.1
		C4.3,4.6,1.8,5.5,0.6,7.5s-0.4,4.8,1.5,7.5c-2.1,2.7-2.7,5.4-1.5,7.5c0.9,1.6,2.8,2.5,5.5,2.5c0.6,0,1.1,0,1.6-0.1
		c1.5,3.1,3.4,5.1,5.8,5.1s4.3-1.9,5.7-5.1h0.3c0.4,0,1,0.1,1.5,0.1c2.7,0,4.6-0.9,5.5-2.5C27.6,20.3,27,17.6,24.9,14.9z M23.9,8.9
		c0.4,0.7,0,2.1-1,3.7c-0.7-0.6-1.4-1.2-2.1-1.8c-0.1-1-0.3-1.9-0.6-2.8C22.1,7.9,23.4,8.2,23.9,8.9z M6.1,14.9
		c1.5-1.5,3.3-2.9,5.2-3.9c1.9-1.1,3.9-1.9,6-2.5c0.5,2.1,0.8,4.3,0.7,6.4c0,2.2-0.2,4.3-0.7,6.4c-2.1-0.6-4.1-1.4-6-2.5
		C9.4,17.7,7.7,16.4,6.1,14.9z M13.6,3c0.9,0,1.8,1,2.7,2.7C14,6.3,11.9,7.2,9.9,8.3C10.7,5.1,12.4,3,13.6,3z M3.3,8.9
		c0.4-0.7,1.8-1,3.7-1c-0.3,0.9-0.5,1.9-0.6,2.8c-0.8,0.6-1.5,1.2-2.2,1.9C3.1,11,2.8,9.7,3.3,8.9z M3.3,20.9c-0.4-0.7,0-2.1,1-3.7
		c0.7,0.6,1.4,1.2,2.1,1.8c0.1,1,0.3,1.9,0.6,2.8C5.1,21.9,3.7,21.6,3.3,20.9z M13.6,26.8c-1.2,0-2.8-2.1-3.7-5.5
		c2,1.1,4.2,2,6.4,2.7C15.4,25.8,14.5,26.8,13.6,26.8z M23.9,20.9c-0.4,0.7-1.8,1-3.7,1c0.5-2.3,0.7-4.6,0.7-6.9
		C23.6,17.4,24.5,19.8,23.9,20.9z"/>
	<path class="st0" d="M47.9,11.3c-1.1-1-2.5-1.6-4-1.5c-1.9,0-3,0.6-3,1.6s0.9,1.6,3,1.7c3.1,0.2,6.9,0.9,6.9,5.2
		c0,2.8-2.3,5.2-6.9,5.2c-2.8,0.2-5.5-0.8-7.5-2.8l2-2.9C40,19.2,42,20,44,20.1c1.5,0,2.9-0.7,2.9-1.9c0-1.2-0.9-1.5-3.2-1.7
		c-3-0.2-6.6-1.3-6.6-5s3.8-5,6.7-5c2.3-0.2,4.5,0.6,6.2,2.1L47.9,11.3z"/>
	<path class="st0" d="M65.9,29.8v-8.6c-1.3,1.6-3.3,2.4-5.3,2.3c-5.1,0-8.1-3.7-8.1-8.4c-0.2-4.4,3.2-8.2,7.6-8.4c0.2,0,0.4,0,0.6,0
		c2,0,4,0.9,5.2,2.6l0.3-2.2h3.7v22.7H65.9z M65.6,15.2c0-2.5-2-4.5-4.5-4.5s-4.5,2-4.5,4.5s2,4.5,4.5,4.5S65.6,17.7,65.6,15.2z"/>
	<path class="st0" d="M77.1,7.1v8.4c-0.3,2.1,1.2,4,3.3,4.3c0.2,0,0.4,0,0.5,0c2.3-0.1,4.2-2,4.1-4.3c0-0.1,0-0.1,0-0.2V7.1H89v16
		h-3.5l-0.3-2.2c-1.4,1.5-3.3,2.4-5.4,2.4c-3.8,0-6.6-2.9-6.6-7.8V7.1H77.1z"/>
	<path class="st0" d="M96.8,2.6c-0.1,1.3-1.2,2.2-2.5,2.1c-1.1-0.1-2.1-1-2.1-2.1c0.1-1.3,1.2-2.2,2.5-2.1
		C95.8,0.5,96.7,1.4,96.8,2.6z M92.5,7.1v16h4V7L92.5,7.1z"/>
	<path class="st0" d="M110.5,11.3c-1.1-1-2.5-1.6-4-1.5c-1.9,0-3,0.6-3,1.6s0.9,1.6,3,1.7c3,0.2,6.8,0.9,6.8,5.1
		c0,2.8-2.3,5.2-6.9,5.2c-2.8,0.2-5.5-0.8-7.5-2.8l2-2.8c1.5,1.4,3.5,2.1,5.5,2.2c1.5,0,2.9-0.7,2.9-1.9c0-1.2-0.9-1.5-3.2-1.7
		c-3-0.2-6.6-1.3-6.6-5s3.8-5,6.7-5c2.3-0.2,4.5,0.6,6.2,2.1L110.5,11.3z"/>
	<path class="st0" d="M119.8,0.4v8.9c1.1-1.6,3-2.5,5-2.5c4.5,0,6.6,3.1,6.6,7.8v8.4h-4v-8.4c0-3-1.5-4.1-3.6-4.1
		c-2.3,0.1-4,2-4,4.2c0,0.1,0,0.1,0,0.2v8.2h-4V0.4H119.8z"/>
</g>
</svg>
